<svg width="24" height="24" viewBox="0 0 24 24" fill="none" xmlns="http://www.w3.org/2000/svg">
<g clip-path="url(#clip0_5303_8724)">
<path d="M14.3912 17.2615H15.8257L16.304 22.9999H20.1296L20.6079 17.2615H22.9989V13.914C22.9989 10.2329 19.0139 7.93206 15.8257 9.77269C15.2665 10.0955 14.7786 10.5283 14.3911 11.0448" fill="#66E1FF"/>
<path d="M14.3912 17.2615H15.8257L16.304 22.9999H20.1296L20.6079 17.2615H22.9989V13.914C22.9989 10.2329 19.0139 7.93206 15.8257 9.77269C15.2665 10.0955 14.7786 10.5283 14.3911 11.0448" stroke="#191919" stroke-linecap="round" stroke-linejoin="round"/>
<path d="M12.4792 1.03115C12.3214 1.0244 12.1655 1.00248 12.0058 1.00248C5.97 0.874387 1.00684 5.7297 1.00225 11.7668C0.957843 17.886 5.85194 22.8983 11.9704 22.9999C12.1425 22.9999 12.3089 22.9817 12.4792 22.9751V1.03115Z" fill="#C9F7CA"/>
<path d="M1.26521 9.44666C1.09309 10.208 1.0051 10.9865 1.00126 11.7669C0.957883 17.8861 5.85198 22.8978 11.9704 23C12.1425 23 12.3089 22.9809 12.4782 22.9751V18.1931C12.3089 18.1988 12.1425 18.2179 11.9704 18.2179C6.79984 18.1302 2.36805 14.499 1.26521 9.44666Z" fill="#78EB7B"/>
<path d="M12.4792 1.03115C12.3214 1.0244 12.1655 1.00248 12.0058 1.00248C5.97 0.874387 1.00684 5.7297 1.00225 11.7668C0.957843 17.886 5.85194 22.8983 11.9704 22.9999C12.1425 22.9999 12.3089 22.9817 12.4792 22.9751V1.03115Z" stroke="#191919" stroke-linecap="round" stroke-linejoin="round"/>
<path d="M11.527 22.9998C5.78852 15.3485 5.78852 7.23913 11.527 1.02246" stroke="#191919" stroke-linecap="round" stroke-linejoin="round"/>
<path d="M2.43604 17.2662H12.4784" stroke="#191919" stroke-linecap="round" stroke-linejoin="round"/>
<path d="M2.23193 6.74573H12.478" stroke="#191919" stroke-linecap="round" stroke-linejoin="round"/>
<path d="M1.0625 11.5277H12.4773" stroke="#191919" stroke-linecap="round" stroke-linejoin="round"/>
<path d="M18.2168 11.0496V13.9188" stroke="#191919" stroke-linecap="round" stroke-linejoin="round"/>
<path d="M21.5242 3.9032C20.8318 4.19854 20.0869 4.35137 19.3341 4.35277C17.825 4.35052 16.3804 3.74026 15.3267 2.65991C16.6267 0.439232 19.8432 0.458628 21.1162 2.69486C21.3286 3.06769 21.4671 3.478 21.5242 3.9032Z" fill="#C77F67" stroke="#191919" stroke-linecap="round" stroke-linejoin="round"/>
<path d="M21.5622 4.34985C21.5622 6.92667 18.7725 8.53727 16.5409 7.24881C15.5052 6.65082 14.8672 5.54573 14.8672 4.34985C14.8636 3.7543 15.0223 3.16905 15.3263 2.65698C16.38 3.73724 17.8246 4.34751 19.3337 4.34985C20.0865 4.34854 20.8314 4.19562 21.5238 3.90037C21.5516 4.0486 21.564 4.19871 21.5622 4.34985Z" fill="#FFDDA1" stroke="#191919" stroke-linecap="round" stroke-linejoin="round"/>
</g>
<defs>
<clipPath id="clip0_5303_8724">
<rect width="24" height="24" fill="white"/>
</clipPath>
</defs>
</svg>
