<svg width="24" height="24" viewBox="0 0 24 24" fill="none" xmlns="http://www.w3.org/2000/svg">
<path d="M21.6252 2.375C21.8683 2.375 22.1015 2.47158 22.2733 2.64348C22.4452 2.81539 22.5418 3.04855 22.5418 3.29167V21.625C22.5418 21.8681 22.4452 22.1013 22.2733 22.2732C22.1015 22.445 21.8683 22.5417 21.6252 22.5417H2.37516C2.13204 22.5417 1.89889 22.445 1.72698 22.2732C1.55507 22.1013 1.4585 21.8681 1.4585 21.625V3.29167C1.4585 3.04855 1.55507 2.81539 1.72698 2.64348C1.89889 2.47158 2.13204 2.375 2.37516 2.375H21.6252Z" fill="#E3E3E3"/>
<path d="M2.16983 22.5178L22.1532 2.53912C21.9986 2.43072 21.814 2.37336 21.6252 2.37504H2.37516C2.13204 2.37504 1.89889 2.47162 1.72698 2.64352C1.55507 2.81543 1.4585 3.04858 1.4585 3.2917V21.625C1.45862 21.8324 1.52902 22.0336 1.65822 22.1957C1.78741 22.3579 1.96777 22.4715 2.16983 22.5178Z" fill="white"/>
<path d="M11.5418 2.375H21.6252C21.8683 2.375 22.1015 2.47158 22.2733 2.64348C22.4452 2.81539 22.5418 3.04855 22.5418 3.29167V21.625C22.5418 21.8681 22.4452 22.1013 22.2733 22.2732C22.1015 22.445 21.8683 22.5417 21.6252 22.5417H2.37516C2.13204 22.5417 1.89889 22.445 1.72698 22.2732C1.55507 22.1013 1.4585 21.8681 1.4585 21.625V3.29167C1.4585 3.04855 1.55507 2.81539 1.72698 2.64348C1.89889 2.47158 2.13204 2.375 2.37516 2.375H5.12516" stroke="#191919" stroke-linecap="round" stroke-linejoin="round"/>
<path d="M11.5414 10.625C11.5414 11.1292 11.2664 11.2309 10.9374 10.8524L8.33315 7.87504L5.72615 10.8505C5.3934 11.23 5.12207 11.1255 5.12207 10.6241V2.37412C5.12207 2.13101 5.21864 1.89785 5.39055 1.72594C5.56246 1.55404 5.79562 1.45746 6.03874 1.45746H10.622C10.8652 1.45746 11.0983 1.55404 11.2703 1.72594C11.4422 1.89785 11.5387 2.13101 11.5387 2.37412L11.5414 10.625Z" fill="#FF808C"/>
<path d="M11.5417 4.20831V2.37498C11.5417 2.13186 11.4451 1.89871 11.2732 1.7268C11.1013 1.55489 10.8681 1.45831 10.625 1.45831H6.04167C5.79855 1.45831 5.56539 1.55489 5.39348 1.7268C5.22158 1.89871 5.125 2.13186 5.125 2.37498V4.20831H11.5417Z" fill="#FFBFC5"/>
<path d="M11.5414 10.625C11.5414 11.1292 11.2664 11.2309 10.9374 10.8524L8.33315 7.87504L5.72615 10.8505C5.3934 11.23 5.12207 11.1255 5.12207 10.6241V2.37412C5.12207 2.13101 5.21864 1.89785 5.39055 1.72594C5.56246 1.55404 5.79562 1.45746 6.03874 1.45746H10.622C10.8652 1.45746 11.0983 1.55404 11.2703 1.72594C11.4422 1.89785 11.5387 2.13101 11.5387 2.37412L11.5414 10.625Z" stroke="#191919" stroke-linecap="round" stroke-linejoin="round"/>
<path d="M14.2915 6.95746H19.7915" stroke="#191919" stroke-linecap="round" stroke-linejoin="round"/>
<path d="M14.2915 10.6241H19.7915" stroke="#191919" stroke-linecap="round" stroke-linejoin="round"/>
<path d="M4.2085 14.2908H19.7918" stroke="#191919" stroke-linecap="round" stroke-linejoin="round"/>
<path d="M4.2085 17.9574H19.3307" stroke="#191919" stroke-linecap="round" stroke-linejoin="round"/>
</svg>
