<svg width="24" height="24" viewBox="0 0 24 24" fill="none" xmlns="http://www.w3.org/2000/svg">
<g clip-path="url(#clip0_5303_8413)">
<path d="M22.0435 19.2877H6.26087L1.38261 22.8384C1.34708 22.865 1.30484 22.8812 1.26061 22.8852C1.21638 22.8892 1.17191 22.8808 1.13219 22.8609C1.09247 22.841 1.05906 22.8105 1.03571 22.7727C1.01237 22.735 1 22.6914 1 22.647V2.07035C1 1.81666 1.10078 1.57337 1.28016 1.39399C1.45954 1.21461 1.70283 1.11383 1.95652 1.11383H22.0435C22.2971 1.11383 22.5405 1.21461 22.7198 1.39399C22.8992 1.57337 23 1.81666 23 2.07035V18.3312C23 18.5849 22.8992 18.8282 22.7198 19.0076C22.5405 19.1869 22.2971 19.2877 22.0435 19.2877Z" fill="#66E1FF"/>
<path d="M1.38262 22.8384L6.26088 19.2877H6.37949L23 2.66818V2.07035C23 1.81666 22.8993 1.57337 22.7198 1.39399C22.5405 1.21461 22.2971 1.11383 22.0435 1.11383H1.95653C1.70284 1.11383 1.45955 1.21461 1.28017 1.39399C1.10078 1.57337 1.00001 1.81666 1.00001 2.07035V22.6451C0.999648 22.6897 1.01176 22.7335 1.03496 22.7716C1.05817 22.8096 1.09155 22.8405 1.13134 22.8605C1.17112 22.8806 1.21573 22.8891 1.26013 22.8852C1.30454 22.8813 1.34696 22.8651 1.38262 22.8384Z" fill="#C2F3FF"/>
<path d="M8.65137 8.04967C8.65109 7.37303 8.84212 6.71008 9.2024 6.13732C9.56268 5.56456 10.0776 5.10533 10.6876 4.81259C11.2977 4.51985 11.9781 4.40555 12.6503 4.48285C13.3224 4.56016 13.9591 4.82593 14.4868 5.24949C15.0145 5.67307 15.4117 6.2372 15.6325 6.87679C15.8534 7.51637 15.889 8.20538 15.7351 8.8643C15.5813 9.52322 15.2442 10.1252 14.763 10.6008C14.2816 11.0765 13.6757 11.4064 13.015 11.5525C12.7982 11.5952 12.6028 11.7113 12.4613 11.881C12.3199 12.0508 12.2412 12.2641 12.2383 12.4851V13.5487" stroke="#191919" stroke-linecap="round" stroke-linejoin="round"/>
<path d="M12.2406 16.4183C12.1085 16.4183 12.0015 16.3112 12.0015 16.1791C12.0015 16.047 12.1085 15.94 12.2406 15.94" stroke="#191919"/>
<path d="M12.2412 16.4183C12.3733 16.4183 12.4803 16.3112 12.4803 16.1791C12.4803 16.047 12.3733 15.94 12.2412 15.94" stroke="#191919"/>
<path d="M22.0435 19.2877H6.26087L1.38261 22.8384C1.34708 22.865 1.30484 22.8812 1.26061 22.8852C1.21638 22.8892 1.17191 22.8808 1.13219 22.8609C1.09247 22.841 1.05906 22.8105 1.03571 22.7727C1.01237 22.735 1 22.6914 1 22.647V2.07035C1 1.81666 1.10078 1.57337 1.28016 1.39399C1.45954 1.21461 1.70283 1.11383 1.95652 1.11383H22.0435C22.2971 1.11383 22.5405 1.21461 22.7198 1.39399C22.8992 1.57337 23 1.81666 23 2.07035V18.3312C23 18.5849 22.8992 18.8282 22.7198 19.0076C22.5405 19.1869 22.2971 19.2877 22.0435 19.2877Z" stroke="#191919" stroke-linecap="round" stroke-linejoin="round"/>
</g>
<defs>
<clipPath id="clip0_5303_8413">
<rect width="24" height="24" fill="white"/>
</clipPath>
</defs>
</svg>
