<svg width="24" height="24" viewBox="0 0 24 24" fill="none" xmlns="http://www.w3.org/2000/svg">
<path d="M13.8183 18.7933C18.5926 18.7933 22.4628 14.923 22.4628 10.1488C22.4628 5.37455 18.5926 1.50427 13.8183 1.50427C9.04411 1.50427 5.17383 5.37455 5.17383 10.1488C5.17383 14.923 9.04411 18.7933 13.8183 18.7933Z" fill="#66E1FF"/>
<path d="M7.70512 16.2618C6.08396 14.6405 5.17325 12.4416 5.17334 10.1489C5.17342 7.85613 6.0843 5.65733 7.70557 4.03617C9.32685 2.41502 11.5257 1.50431 13.8185 1.50439C16.1112 1.50448 18.31 2.41535 19.9312 4.03663L7.70512 16.2618Z" fill="#C2F3FF"/>
<path d="M13.3643 5.66187V10.6666H17.9139" stroke="#191919" stroke-linecap="round" stroke-linejoin="round"/>
<path d="M5.62889 12.9724C5.11889 11.4571 5.03906 9.83013 5.39831 8.27226C5.75755 6.7144 6.54177 5.28667 7.66381 4.14779C8.78586 3.00892 10.2017 2.20352 11.7541 1.82111C13.3065 1.43871 14.9344 1.49429 16.457 1.98167C17.9797 2.46906 19.3374 3.36916 20.3791 4.58191C21.4209 5.79466 22.1059 7.27254 22.3581 8.85128C22.6102 10.43 22.4196 12.0478 21.8074 13.5247C21.1953 15.0016 20.1856 16.2798 18.8904 17.2173" stroke="#191919" stroke-linecap="round" stroke-linejoin="round"/>
<path d="M1.53369 22.4957V13.3962" stroke="#191919" stroke-linecap="round" stroke-linejoin="round"/>
<path d="M1.53369 15.2153H7.90333C8.62733 15.2153 9.32167 15.5029 9.83361 16.0148C10.3456 16.5268 10.6332 17.2212 10.6332 17.9452H16.0929C16.8169 17.9452 17.5112 18.2327 18.0232 18.7447C18.5351 19.2566 18.8227 19.951 18.8227 20.675H1.53369V15.2153Z" fill="#FFDDA1" stroke="#191919" stroke-linecap="round" stroke-linejoin="round"/>
<path d="M10.6337 17.946H7.90381" stroke="#191919" stroke-linecap="round" stroke-linejoin="round"/>
</svg>
